<?xml version="1.0" encoding="UTF-8" standalone="no"?>
<!-- Created with Inkscape (http://www.inkscape.org/) -->

<svg
   xmlns:dc="http://purl.org/dc/elements/1.1/"
   xmlns:cc="http://creativecommons.org/ns#"
   xmlns:rdf="http://www.w3.org/1999/02/22-rdf-syntax-ns#"
   xmlns:svg="http://www.w3.org/2000/svg"
   xmlns="http://www.w3.org/2000/svg"
   xmlns:sodipodi="http://sodipodi.sourceforge.net/DTD/sodipodi-0.dtd"
   xmlns:inkscape="http://www.inkscape.org/namespaces/inkscape"
   width="13.229168mm"
   height="10.355853mm"
   viewBox="0 0 13.229168 10.355853"
   version="1.1"
   id="svg8"
   inkscape:version="0.92.4 (5da689c313, 2019-01-14)"
   sodipodi:docname="logo.svg">
  <defs
     id="defs2" />
  <sodipodi:namedview
     id="base"
     pagecolor="#ffffff"
     bordercolor="#666666"
     borderopacity="1.0"
     inkscape:pageopacity="0.0"
     inkscape:pageshadow="2"
     inkscape:zoom="8"
     inkscape:cx="66.851989"
     inkscape:cy="24.466585"
     inkscape:document-units="mm"
     inkscape:current-layer="layer1"
     showgrid="false"
     inkscape:window-width="1920"
     inkscape:window-height="1009"
     inkscape:window-x="-8"
     inkscape:window-y="-8"
     inkscape:window-maximized="1" />
  <metadata
     id="metadata5">
    <rdf:RDF>
      <cc:Work
         rdf:about="">
        <dc:format>image/svg+xml</dc:format>
        <dc:type
           rdf:resource="http://purl.org/dc/dcmitype/StillImage" />
        <dc:title></dc:title>
      </cc:Work>
    </rdf:RDF>
  </metadata>
  <g
     inkscape:label="Layer 1"
     inkscape:groupmode="layer"
     id="layer1"
     style="display:inline"
     transform="translate(-21.13889,-161.17086)">
    <g
       id="g3785"
       style="fill:#f2f2f2"
       transform="matrix(0.92236991,0,0,0.87127159,2.1057558,22.08036)">
      <text
         transform="scale(0.99831694,1.0016859)"
         id="text3735"
         y="168.07683"
         x="22.653902"
         style="font-style:normal;font-weight:normal;font-size:8.34861946px;line-height:1.25;font-family:sans-serif;letter-spacing:0px;word-spacing:0px;fill:#f2f2f2;fill-opacity:1;stroke:none;stroke-width:0.20871547"
         xml:space="preserve"><tspan
           style="font-style:normal;font-variant:normal;font-weight:normal;font-stretch:normal;font-family:'Franklin Gothic Medium';-inkscape-font-specification:'Franklin Gothic Medium, ';fill:#f2f2f2;stroke-width:0.20871547"
           y="168.07683"
           x="22.653902"
           id="tspan3733"
           sodipodi:role="line">TIL</tspan></text>
      <g
         style="fill:#f2f2f2"
         id="layer1-4"
         transform="matrix(0.01322639,0,0,0.01322639,22.793511,159.30753)">
        <path
           style="fill:#f2f2f2"
           inkscape:connector-curvature="0"
           id="rect5467"
           d="m -83.425,140.88 c -23.088,0 -41.675,18.587 -41.675,41.675 v 583.45 c 0,23.088 18.587,41.675 41.675,41.675 h 250.05 v 66.159 H 58.275 c -9.2352,0 -16.67,7.4348 -16.67,16.67 v 16.67 c 0,9.2351 7.4348,16.67 16.67,16.67 h 633.46 c 9.2352,0 16.67,-7.4349 16.67,-16.67 v -16.67 c 0,-9.2352 -7.4348,-16.67 -16.67,-16.67 H 583.385 V 807.68 h 250.05 c 23.088,0 41.675,-18.587 41.675,-41.675 v -583.45 c 0,-23.088 -18.587,-41.675 -41.675,-41.675 h -916.85 z m 41.675,83.35 h 833.5 v 500.1 h -833.5 z" />
      </g>
    </g>
  </g>
</svg>
